<svg xmlns="http://www.w3.org/2000/svg" viewBox="0 0 71.12 108.14"><defs><style>.cls-1{fill:none;stroke:#231f20;stroke-miterlimit:10;stroke-width:10px;}.cls-2{fill:#231f20;}</style></defs><title>Asset 8</title><g id="Layer_2" data-name="Layer 2"><g id="Layer_1-2" data-name="Layer 1"><path class="cls-1" d="M29.16,88.12c2.91-8.56,11.85-9.17,16.4,1l4.11,9.41c1.72,3.93,5.83,5.69,9.42,4h0a8.09,8.09,0,0,0,4.36-5.75,134.43,134.43,0,0,0,2.67-27.12C66.12,33.94,53.11,5,37.06,5,21.84,5,9.36,44.39,8.11,66.24c-.06,1-.1,2-.11,3v.41"/><circle class="cls-2" cx="8" cy="72.53" r="8"/><path class="cls-2" d="M33.41,95.34,22.24,91.23a3,3,0,0,1-1.66-3.54h0a2.4,2.4,0,0,1,3.11-1.8L34.85,90a3,3,0,0,1,1.66,3.54h0A2.39,2.39,0,0,1,33.41,95.34Z"/></g></g></svg>